<svg width="16" height="14" viewBox="0 0 16 14" fill="none" xmlns="http://www.w3.org/2000/svg">
<path d="M0.926482 4.41053C0.680857 4.41083 0.445378 4.50854 0.271695 4.68222C0.0980112 4.85591 0.000302681 5.09139 0 5.33701V8.17365C0.000302681 8.41927 0.0980112 8.65475 0.271695 8.82843C0.445378 9.00212 0.680857 9.09983 0.926482 9.10013H1.85479C2.24689 9.76697 2.80873 10.3608 3.49776 10.841V12.8266C3.49776 12.948 3.54596 13.0644 3.63176 13.1502C3.71756 13.236 3.83394 13.2842 3.95528 13.2842H6.31838C6.43972 13.2842 6.55609 13.236 6.64189 13.1502C6.7277 13.0644 6.7759 12.948 6.7759 12.8266V12.0466C7.06345 12.0786 7.35512 12.0969 7.64977 12.0969C7.94441 12.0969 8.23608 12.0786 8.52363 12.0466V12.8266C8.52363 12.948 8.57184 13.0644 8.65764 13.1502C8.74344 13.236 8.85981 13.2842 8.98116 13.2842H11.3443C11.4656 13.2842 11.582 13.236 11.6678 13.1502C11.7536 13.0644 11.8018 12.948 11.8018 12.8266V10.841C13.1226 9.92321 13.9293 8.6298 14.0727 7.21285H14.0812C15.1392 7.21285 16 6.3518 16 5.29378V4.79027C16 4.66893 15.9518 4.55256 15.866 4.46676C15.7802 4.38095 15.6638 4.33275 15.5425 4.33275C15.4211 4.33275 15.3048 4.38095 15.219 4.46676C15.1332 4.55256 15.085 4.66893 15.085 4.79027V5.29378C15.0847 5.55993 14.9788 5.8151 14.7906 6.00332C14.6025 6.19154 14.3473 6.29744 14.0812 6.29781H14.0731C13.7918 3.56732 11.0192 1.41605 7.64954 1.41605C6.94999 1.41605 6.26553 1.50755 5.61174 1.68827L3.44697 0.0899222C3.37794 0.0387367 3.29588 0.00804842 3.2102 0.00137885C3.12453 -0.00529073 3.03871 0.0123285 2.96259 0.0522149C2.88647 0.0921012 2.82314 0.152639 2.77986 0.226881C2.73658 0.301123 2.71511 0.386063 2.71791 0.471953L2.80164 3.23378C2.43277 3.57938 2.11483 3.97558 1.85731 4.41053H0.926253H0.926482ZM2.53399 5.0776C2.78059 4.59903 3.12419 4.16438 3.55495 3.7851C3.60924 3.7407 3.65259 3.68442 3.68167 3.6206C3.71074 3.55677 3.72476 3.48712 3.72263 3.41702L3.66086 1.38562L5.23703 2.54933C5.29545 2.59594 5.36441 2.62752 5.43787 2.64132C5.51132 2.65512 5.58704 2.65071 5.6584 2.62848C6.30336 2.42935 6.97477 2.32908 7.64977 2.33109C10.701 2.33109 13.1835 4.31582 13.1835 6.75533C13.1835 8.10662 12.4233 9.36687 11.0979 10.2128C11.0965 10.214 11.0956 10.2151 11.094 10.216C11.078 10.2265 11.0638 10.2389 11.0494 10.2513C11.0407 10.2588 11.0311 10.2652 11.0228 10.2732C11.0121 10.284 11.0029 10.2963 10.9931 10.3082C10.984 10.3192 10.9739 10.3295 10.9659 10.3414C10.9581 10.3528 10.9522 10.3659 10.9455 10.378C10.9382 10.3917 10.9297 10.4043 10.9238 10.4183C10.9183 10.4308 10.9153 10.4446 10.911 10.4576C10.9062 10.4727 10.9005 10.4873 10.8973 10.5029C10.8947 10.5139 10.8945 10.5258 10.8927 10.537C10.8904 10.5557 10.8874 10.5743 10.8872 10.5933L10.8867 10.5985V12.3691H9.43868V11.5181C9.43868 11.3968 9.39047 11.2804 9.30467 11.1946C9.21887 11.1088 9.1025 11.0606 8.98116 11.0606C8.95289 11.0608 8.92471 11.0637 8.89697 11.0691V11.0684C8.0723 11.2187 7.22724 11.2187 6.40256 11.0684V11.0691C6.37482 11.0637 6.34664 11.0608 6.31838 11.0606C6.19704 11.0606 6.08066 11.1088 5.99486 11.1946C5.90906 11.2804 5.86086 11.3968 5.86086 11.5181V12.3691H4.4128V10.5985L4.41234 10.5935C4.41211 10.574 4.40914 10.5548 4.40639 10.5356C4.40502 10.5249 4.40479 10.5136 4.4025 10.5031C4.39907 10.4871 4.3929 10.4716 4.38786 10.456C4.38375 10.4434 4.381 10.4304 4.37574 10.4185C4.36933 10.4034 4.36041 10.3897 4.35241 10.3752C4.346 10.364 4.34097 10.3521 4.33365 10.3416C4.32518 10.329 4.3142 10.3178 4.30437 10.3062C4.29522 10.2952 4.28698 10.2833 4.27692 10.2732C4.26822 10.265 4.25793 10.2579 4.24855 10.2501C4.23482 10.2384 4.2211 10.2263 4.20577 10.2163C4.20417 10.2153 4.20303 10.214 4.20165 10.2128C3.46413 9.74158 2.88696 9.12667 2.53238 8.43421C2.49405 8.35918 2.43574 8.2962 2.36389 8.2522C2.29204 8.2082 2.20944 8.1849 2.12519 8.18486L0.915044 8.17342L0.926482 5.32535H2.12748C2.21145 5.32533 2.29379 5.30221 2.36549 5.25851C2.43719 5.21481 2.49549 5.15222 2.53399 5.0776Z" fill="white"/>
<path d="M3.93311 5.74802C4.05445 5.74802 4.17082 5.69982 4.25662 5.61401C4.34243 5.52821 4.39063 5.41184 4.39063 5.2905V4.8833C4.39063 4.76196 4.34243 4.64559 4.25662 4.55979C4.17082 4.47398 4.05445 4.42578 3.93311 4.42578C3.81177 4.42578 3.69539 4.47398 3.60959 4.55979C3.52379 4.64559 3.47559 4.76196 3.47559 4.8833V5.2905C3.47559 5.41184 3.52379 5.52821 3.60959 5.61401C3.69539 5.69982 3.81177 5.74802 3.93311 5.74802Z" fill="white"/>
</svg>
