<svg width="20" height="19" viewBox="0 0 20 19" fill="none" xmlns="http://www.w3.org/2000/svg">
<path d="M0.984375 9.44908C0.984375 4.35846 5.11114 0.231689 10.2018 0.231689C15.2924 0.231689 19.4192 4.35846 19.4192 9.44908C19.4192 14.5397 15.2924 18.6665 10.2018 18.6665C5.11114 18.6665 0.984375 14.5397 0.984375 9.44908Z" fill="#7D7D7D"/>
<path d="M14.2117 9.49627C14.1176 9.49627 14.0274 9.45889 13.9608 9.39235C13.8943 9.3258 13.8569 9.23555 13.8569 9.14145V8.11955C13.8702 7.91848 13.8038 7.72025 13.6721 7.56777C13.5403 7.4153 13.3538 7.32085 13.1529 7.30487H7.01303C6.91892 7.30487 6.82867 7.26748 6.76213 7.20094C6.69559 7.1344 6.6582 7.04415 6.6582 6.95004C6.6582 6.85594 6.69559 6.76568 6.76213 6.69914C6.82867 6.6326 6.91892 6.59521 7.01303 6.59521H13.1529C13.5427 6.60928 13.9111 6.77734 14.1771 7.06256C14.4432 7.34778 14.5853 7.72688 14.5722 8.11671V9.13861C14.5726 9.18593 14.5635 9.23284 14.5455 9.27659C14.5275 9.32035 14.5009 9.36006 14.4673 9.39338C14.4337 9.42671 14.3938 9.45298 14.3499 9.47065C14.306 9.48832 14.2591 9.49703 14.2117 9.49627Z" fill="white"/>
<path d="M13.1538 14.0268H7.01388C6.62408 14.0127 6.25577 13.8447 5.9897 13.5595C5.72364 13.2742 5.58154 12.8951 5.59457 12.5053V6.10141C5.59457 6.0073 5.63196 5.91705 5.6985 5.85051C5.76504 5.78397 5.85529 5.74658 5.9494 5.74658C6.04351 5.74658 6.13376 5.78397 6.2003 5.85051C6.26684 5.91705 6.30423 6.0073 6.30423 6.10141V12.5053C6.29093 12.7061 6.35742 12.904 6.48924 13.056C6.62106 13.208 6.80756 13.3019 7.0082 13.3172H13.1538C13.3544 13.3019 13.5409 13.208 13.6727 13.056C13.8046 12.904 13.8711 12.7061 13.8578 12.5053V11.7843C13.8578 11.6902 13.8951 11.5999 13.9617 11.5334C14.0282 11.4669 14.1185 11.4295 14.2126 11.4295C14.3067 11.4295 14.3969 11.4669 14.4635 11.5334C14.53 11.5999 14.5674 11.6902 14.5674 11.7843V12.5053C14.5805 12.8942 14.4391 13.2725 14.1743 13.5575C13.9095 13.8426 13.5426 14.0113 13.1538 14.0268Z" fill="white"/>
<path d="M13.0084 7.30504C12.9153 7.30505 12.8258 7.26844 12.7595 7.20312C12.6931 7.1378 12.655 7.049 12.6536 6.95589V6.16959C12.6469 6.00117 12.5739 5.84222 12.4506 5.72736C12.3272 5.61251 12.1635 5.55108 11.995 5.55645H6.8855C6.74065 5.55107 6.59957 5.60332 6.49316 5.70175C6.38675 5.80018 6.32369 5.93676 6.31778 6.08159C6.32369 6.22643 6.38675 6.36301 6.49316 6.46144C6.59957 6.55987 6.74065 6.61212 6.8855 6.60674H10.008C10.1021 6.60674 10.1923 6.64412 10.2589 6.71066C10.3254 6.77721 10.3628 6.86746 10.3628 6.96156C10.3628 7.05567 10.3254 7.14592 10.2589 7.21246C10.1923 7.27901 10.1021 7.31639 10.008 7.31639H6.87698C6.71161 7.31902 6.54733 7.289 6.39357 7.22804C6.23982 7.16709 6.09959 7.0764 5.98094 6.96117C5.86228 6.84594 5.76752 6.70844 5.70209 6.55653C5.63665 6.40462 5.60183 6.2413 5.59961 6.07592C5.60558 5.74289 5.74344 5.42583 5.98292 5.19434C6.2224 4.96284 6.54394 4.83581 6.87698 4.84112H11.9865C12.1643 4.83736 12.341 4.8688 12.5066 4.93363C12.6722 4.99847 12.8233 5.09541 12.9513 5.21889C13.0792 5.34236 13.1815 5.48993 13.2522 5.65309C13.3229 5.81625 13.3606 5.99179 13.3632 6.16959V6.95589C13.3617 7.049 13.3237 7.1378 13.2573 7.20312C13.1909 7.26844 13.1015 7.30505 13.0084 7.30504ZM14.4419 12.1307H12.4747C12.0905 12.1383 11.7189 11.9931 11.4416 11.727C11.1644 11.4609 11.004 11.0956 10.9958 10.7114V10.1976C11.004 9.81335 11.1644 9.44807 11.4416 9.18196C11.7189 8.91586 12.0905 8.77067 12.4747 8.77827H14.4617C14.5859 8.77865 14.7087 8.80346 14.8233 8.85131C14.9378 8.89916 15.0418 8.9691 15.1293 9.05714C15.2168 9.14518 15.2861 9.24959 15.3333 9.36442C15.3805 9.47924 15.4045 9.60224 15.4042 9.72637V11.1996C15.3997 11.4506 15.2959 11.6895 15.1155 11.8641C14.9351 12.0386 14.6929 12.1345 14.4419 12.1307ZM12.4747 9.49076C12.2791 9.48307 12.0884 9.55308 11.9443 9.68551C11.8002 9.81795 11.7143 10.002 11.7055 10.1976V10.7256C11.7143 10.9211 11.8002 11.1052 11.9443 11.2376C12.0884 11.3701 12.2791 11.4401 12.4747 11.4324H14.4419C14.5039 11.4324 14.5634 11.4079 14.6075 11.3644C14.6516 11.3208 14.6767 11.2616 14.6775 11.1996V9.72637C14.6758 9.66971 14.6524 9.61587 14.6122 9.57592C14.5909 9.55367 14.5654 9.53592 14.5371 9.52373C14.5088 9.51154 14.4784 9.50516 14.4476 9.50496L12.4747 9.49076Z" fill="white"/>
<path d="M12.6712 10.8163C12.8672 10.8163 13.0261 10.6575 13.0261 10.4615C13.0261 10.2656 12.8672 10.1067 12.6712 10.1067C12.4753 10.1067 12.3164 10.2656 12.3164 10.4615C12.3164 10.6575 12.4753 10.8163 12.6712 10.8163Z" fill="white"/>
</svg>
